<?xml version="1.0" standalone="no"?>
<!DOCTYPE svg PUBLIC "-//W3C//DTD SVG 20010904//EN"
 "http://www.w3.org/TR/2001/REC-SVG-20010904/DTD/svg10.dtd">
<svg version="1.0" xmlns="http://www.w3.org/2000/svg"
 width="20px" height="22px" viewBox="0 0 20 22"
 preserveAspectRatio="xMidYMid meet">

<g transform="translate(0.000000,303.000000) scale(0.100000,-0.100000)"
fill="#000000" stroke="none">
<path d="M355 2783 c-25 -7 -75 -61 -75 -82 0 -9 12 -29 27 -46 25 -29 30 -30
134 -35 59 -3 111 -8 115 -13 4 -4 13 -42 19 -85 7 -42 20 -119 30 -171 l18
-95 -34 -25 c-59 -45 -92 -89 -111 -149 -20 -61 -20 -64 21 -297 6 -33 16 -89
21 -125 6 -36 18 -101 26 -145 9 -44 22 -118 29 -165 7 -47 21 -124 30 -172
10 -48 15 -94 12 -103 -4 -10 -20 -15 -48 -15 -74 0 -147 -30 -200 -82 -27
-26 -49 -54 -49 -60 -1 -7 -9 -31 -20 -53 -25 -51 -25 -71 2 -142 42 -113 137
-183 250 -183 86 0 101 -11 92 -65 -14 -97 44 -206 136 -254 51 -26 175 -29
221 -5 53 27 109 86 136 142 21 45 24 63 19 108 -5 46 -4 55 13 64 24 12 829
14 849 2 8 -6 13 -38 15 -93 2 -83 3 -86 42 -134 22 -26 60 -61 84 -77 40 -25
54 -28 125 -28 64 0 88 4 116 21 94 57 140 134 140 238 0 54 4 70 16 75 9 3
74 6 145 6 125 0 131 1 154 25 31 30 33 83 6 116 l-19 24 -1154 2 c-838 2
-1159 6 -1175 14 -11 6 -29 26 -39 45 -16 29 -16 36 -4 60 34 62 -26 59 990
64 1024 6 957 1 1031 71 41 40 112 187 135 282 3 15 15 44 25 64 10 21 19 45
19 56 0 10 9 35 20 57 11 22 20 47 20 57 0 10 9 32 20 48 11 17 20 39 20 50 0
11 9 37 20 58 11 20 20 45 20 55 0 10 8 34 19 55 10 20 22 52 25 70 3 18 15
51 26 72 15 30 20 59 20 125 0 77 -3 89 -29 128 -40 60 -90 100 -142 111 -83
17 -305 22 -1089 23 -856 0 -830 -2 -830 56 0 15 -7 61 -15 102 -9 41 -24 120
-34 176 -21 119 -47 169 -92 178 -36 7 -264 6 -294 -1z m2335 -718 c27 -24 27
-93 0 -145 -11 -22 -20 -47 -20 -57 0 -10 -7 -31 -16 -48 -9 -16 -22 -50 -29
-75 -25 -85 -48 -145 -61 -161 -8 -8 -18 -39 -24 -68 -5 -29 -17 -62 -25 -74
-8 -12 -15 -31 -15 -42 0 -11 -8 -33 -18 -50 -19 -32 -53 -117 -72 -177 -6
-21 -24 -51 -40 -68 l-28 -30 -746 0 -747 0 -25 27 c-13 14 -26 36 -28 47 -3
12 -14 71 -25 131 -12 61 -25 139 -31 176 -5 36 -24 119 -41 185 -40 154 -65
374 -47 412 7 14 23 29 36 32 13 3 464 5 1002 4 934 -1 981 -1 1000 -19z
m-1727 -1563 c62 -58 7 -138 -91 -133 -31 1 -64 57 -57 95 14 75 87 94 148 38z
m1385 6 c31 -30 30 -85 -3 -116 -55 -52 -145 -16 -145 57 1 82 86 115 148 59z"/>
<path d="M1114 1914 c-17 -8 -36 -26 -43 -40 -7 -17 -11 -118 -11 -305 l0
-281 29 -29 c42 -42 99 -41 135 2 l26 31 0 285 0 285 -34 34 c-38 38 -56 41
-102 18z"/>
<path d="M1553 1920 c-13 -5 -32 -24 -43 -42 -19 -31 -20 -51 -20 -303 0 -235
2 -274 16 -295 26 -38 45 -50 80 -50 47 0 63 9 80 43 14 25 16 74 16 308 0
182 -4 285 -12 298 -11 22 -60 51 -82 50 -7 0 -23 -4 -35 -9z"/>
<path d="M1985 1916 c-52 -23 -55 -41 -55 -345 l0 -279 29 -31 c40 -42 90 -43
132 -2 l29 29 0 289 0 289 -27 26 c-35 34 -70 41 -108 24z"/>
</g>
</svg>
