<?xml version="1.0" standalone="no"?>
<!DOCTYPE svg PUBLIC "-//W3C//DTD SVG 20010904//EN"
 "http://www.w3.org/TR/2001/REC-SVG-20010904/DTD/svg10.dtd">
<svg version="1.0" xmlns="http://www.w3.org/2000/svg"
 width="46.000000pt" height="25.000000pt" viewBox="0 0 433.000000 296.000000"
 preserveAspectRatio="xMidYMid meet" fill="pink">

<g transform="translate(0.000000,292.000000) scale(0.100000,-0.100000)"
fill="#ef3a8b" stroke="none">
<path d="M1175 2534 c-27 -2 -192 -8 -365 -13 -243 -7 -325 -12 -357 -24 -24
-9 -71 -19 -105 -23 -111 -12 -137 -73 -32 -74 12 0 41 -8 65 -19 33 -14 80
-20 194 -25 83 -4 209 -14 280 -24 116 -15 254 -17 1320 -17 1067 0 1201 2
1300 17 61 9 175 20 255 24 108 5 156 11 189 25 24 11 59 19 78 19 22 0 36 6
40 16 12 33 -11 49 -83 57 -38 4 -89 14 -114 23 -32 12 -106 19 -260 25 -210
9 -2306 20 -2405 13z"/>
<path d="M1095 1613 c-44 -2 -197 -7 -340 -12 -189 -6 -271 -13 -301 -24 -23
-8 -71 -18 -107 -22 -99 -11 -131 -57 -49 -70 20 -4 57 -15 82 -25 33 -13 85
-19 195 -23 83 -4 213 -14 290 -24 127 -16 247 -18 1315 -18 1072 0 1186 2
1295 18 66 9 183 20 260 23 93 4 150 11 170 21 17 8 53 18 80 21 45 6 50 10
53 34 4 30 -2 33 -92 43 -32 4 -79 14 -105 22 -30 10 -113 19 -241 25 -190 8
-2345 18 -2505 11z"/>
<path d="M1060 693 c-25 -2 -164 -7 -310 -12 -190 -7 -276 -13 -305 -24 -22
-8 -68 -18 -102 -22 -42 -5 -67 -13 -79 -26 -23 -26 -11 -36 55 -49 30 -5 60
-15 68 -22 9 -7 83 -15 191 -20 97 -4 206 -14 242 -20 47 -9 401 -13 1295 -16
1081 -3 1244 -1 1345 13 63 9 187 19 275 24 116 6 168 13 190 25 17 9 42 16
57 16 42 0 58 10 58 36 0 26 -3 27 -117 44 -39 5 -84 15 -100 22 -15 6 -111
15 -213 20 -183 8 -2463 19 -2550 11z"/>
</g>
</svg>
